<svg version="1.1" id="Layer_1" xmlns="http://www.w3.org/2000/svg" xmlns:xlink="http://www.w3.org/1999/xlink" x="0px" y="0px"
	 width="48" viewBox="0 0 230 245" enable-background="new 0 0 230 245" xml:space="preserve">
<path fill="#59B5DA" opacity="1.000000" stroke="none" 
	d="
M173.056915,16.824959 
	C182.575012,22.739847 187.378326,31.841703 189.946625,42.308823 
	C190.610916,45.016151 191.202225,46.601009 194.498459,46.965862 
	C209.736465,48.652557 219.889786,61.025253 219.310547,76.742035 
	C218.768570,91.448112 206.858093,103.647011 191.873306,103.797935 
	C162.553055,104.093231 133.222672,104.162231 103.908661,103.640350 
	C98.041481,103.535904 92.228661,100.377983 86.193428,97.937592 
	C85.324524,91.194435 84.107140,85.144310 84.077820,79.088432 
	C83.963326,55.446220 105.907730,36.967762 129.616333,39.258980 
	C132.803070,39.566944 134.206085,38.544514 135.713715,36.506809 
	C143.079788,26.550739 152.894623,20.752363 165.136581,18.897669 
	C167.819778,18.491156 170.419006,17.530447 173.056915,16.824959 
z"/>
<path fill="#1773B9" opacity="1.000000" stroke="none" 
	d="
M128.622269,113.409164 
	C133.244598,113.409164 137.866928,113.409164 142.920273,113.409164 
	C142.920273,130.811584 142.920273,148.137604 142.920273,165.873413 
	C139.497711,164.602844 136.158234,163.363129 132.557373,162.026367 
	C130.545395,167.012665 128.463135,171.705948 126.774315,176.536789 
	C125.788521,179.356659 124.272125,180.251328 121.304062,180.217453 
	C106.849968,180.052551 92.393135,180.126877 77.462021,179.572678 
	C76.986435,161.430466 76.986099,143.832108 77.441788,126.151596 
	C79.879013,126.021744 81.867142,126.063957 83.840332,125.912140 
	C99.589661,124.700310 114.969276,122.139191 128.622269,113.409164 
z"/>
<path fill="#B7D435" opacity="1.000000" stroke="none" 
	d="
M128.196381,113.313828 
	C114.969276,122.139191 99.589661,124.700310 83.840332,125.912140 
	C81.867142,126.063957 79.879013,126.021744 76.989670,126.066986 
	C62.228382,125.934738 48.646515,124.077888 35.705284,118.960625 
	C24.696308,114.607407 14.793538,108.781746 10.261722,96.873894 
	C9.163414,89.358612 11.604081,82.967636 16.973314,77.859413 
	C28.206343,67.172440 42.347641,63.258007 57.857460,60.578083 
	C57.857460,62.933731 57.844337,64.693771 57.859436,66.453568 
	C58.078415,91.973106 78.798828,112.825966 104.284119,113.129227 
	C112.112152,113.222374 119.941658,113.192200 128.196381,113.313828 
z"/>
<path fill="#469BD3" opacity="1.000000" stroke="none" 
	d="
M10.197466,97.352142 
	C14.793538,108.781746 24.696308,114.607407 35.705284,118.960625 
	C48.646515,124.077888 62.228382,125.934738 76.533646,126.149139 
	C76.986099,143.832108 76.986435,161.430466 76.999710,179.494537 
	C71.027855,178.819397 68.387733,181.966263 67.073189,187.327850 
	C66.291229,190.517212 64.873100,193.550583 63.306145,197.846130 
	C55.329174,175.943344 47.745106,155.119354 39.684978,132.988220 
	C35.152760,145.412964 31.089350,156.546936 27.032043,167.683121 
	C26.577059,168.931931 26.165754,170.196594 25.718847,171.448410 
	C22.181215,181.357590 21.733238,181.596420 10.133209,179.465363 
	C10.133209,152.311768 10.133209,125.071075 10.197466,97.352142 
z"/>
<path fill="#0944A5" opacity="1.000000" stroke="none" 
	d="
M150.754501,216.013687 
	C149.708878,214.670898 148.908997,213.618469 147.825470,212.192810 
	C144.670059,213.445038 141.500351,214.702957 137.738434,216.195877 
	C136.538300,213.289780 135.372421,210.466629 134.049927,207.264267 
	C137.361938,205.802689 140.517273,204.410278 143.868637,202.931335 
	C143.868637,198.160217 143.972229,193.391678 143.784714,188.634628 
	C143.745331,187.635651 142.860703,186.266708 141.975128,185.782806 
	C139.661591,184.518661 137.131851,183.650192 134.135742,182.391907 
	C135.275177,179.484024 136.382996,176.656876 137.682083,173.341614 
	C141.163773,174.701599 144.351166,175.946625 146.489792,176.781998 
	C150.411041,172.331116 153.898666,168.372437 157.386292,164.413742 
	C158.002243,164.879578 158.618210,165.345428 159.234177,165.811264 
	C158.008759,162.604477 156.783325,159.397690 155.359451,155.671539 
	C158.415146,154.431229 161.251816,153.279831 164.284103,152.049026 
	C165.792145,155.504501 167.168427,158.658020 168.437042,161.564835 
	C174.034286,161.564835 179.296600,161.564835 184.974899,161.564835 
	C186.218323,158.743042 187.606049,155.593735 189.157288,152.073395 
	C192.212082,153.287674 195.050079,154.415771 198.158554,155.651382 
	C196.735489,159.251923 195.476318,162.437790 194.669754,164.478500 
	C199.099777,168.547714 202.988098,172.119339 206.876404,175.690964 
	C206.493011,176.201050 206.109604,176.711151 205.726212,177.221252 
	C208.937698,175.974152 212.149185,174.727066 215.657928,173.364548 
	C216.856140,176.235977 217.991714,178.957306 219.377167,182.277466 
	C216.096603,183.716522 212.993988,185.077530 209.847382,186.457825 
	C209.847382,191.844559 209.847382,197.101685 209.847382,202.967438 
	C212.564941,204.201385 215.678146,205.614960 219.297607,207.258423 
	C218.109863,210.234741 216.977646,213.071930 215.732513,216.192093 
	C212.188019,214.797058 208.979019,213.534058 207.255859,212.855865 
	C203.045944,217.186508 199.360733,220.977402 195.675522,224.768280 
	C195.151093,224.398605 194.626648,224.028946 194.102203,223.659271 
	C195.382034,226.851288 196.661865,230.043304 198.119171,233.677963 
	C195.187027,234.917816 192.365341,236.110962 189.197739,237.450394 
	C187.702118,234.088913 186.370590,231.096268 184.977158,227.964493 
	C179.546082,227.964493 174.140259,227.964493 168.408234,227.964493 
	C167.161377,230.826584 165.851608,233.833084 164.282013,237.436050 
	C161.309189,236.219879 158.485947,235.064911 155.332764,233.774963 
	C156.712830,230.214737 157.953735,227.013519 159.118179,224.009567 
	C156.277817,221.313507 153.639038,218.808762 150.754501,216.013687 
M167.713303,172.923920 
	C165.605347,174.236008 163.317337,175.330017 161.419632,176.896774 
	C151.563553,185.033783 150.237930,199.455063 158.293747,209.583878 
	C166.082428,219.376862 180.472382,221.297745 190.536514,213.887924 
	C199.894852,206.997757 202.972168,194.715149 197.898071,184.505325 
	C192.357880,173.357651 181.144089,168.829605 167.713303,172.923920 
z"/>
<path fill="#469BD3" opacity="1.000000" stroke="none" 
	d="
M76.991257,237.007309 
	C59.383430,237.508987 42.512691,234.482925 26.906898,226.027084 
	C19.117756,221.806610 12.145487,216.330536 10.498682,207.049042 
	C9.557916,201.746826 10.328428,196.140945 10.328428,189.799591 
	C15.255556,189.799591 20.169683,189.639069 25.066675,189.859406 
	C28.034781,189.992966 29.493544,189.040222 30.468334,186.119080 
	C33.201786,177.927795 36.306709,169.860489 39.667400,160.640564 
	C47.662258,182.564041 55.311131,203.538757 63.275459,225.378525 
	C67.879242,212.997437 72.103386,201.637314 76.661469,190.622101 
	C76.994011,206.313766 76.992638,221.660538 76.991257,237.007309 
z"/>
<path fill="#80C2E2" opacity="1.000000" stroke="none" 
	d="
M172.899078,16.528494 
	C170.419006,17.530447 167.819778,18.491156 165.136581,18.897669 
	C152.894623,20.752363 143.079788,26.550739 135.713715,36.506809 
	C134.206085,38.544514 132.803070,39.566944 129.616333,39.258980 
	C105.907730,36.967762 83.963326,55.446220 84.077820,79.088432 
	C84.107140,85.144310 85.324524,91.194435 85.972107,97.669678 
	C66.758102,88.854767 61.049763,60.673542 74.939644,42.613583 
	C83.428192,31.576565 94.730057,26.506603 108.824303,27.674023 
	C110.623421,27.823042 113.167023,26.381632 114.396706,24.882278 
	C129.405060,6.582600 153.155884,2.981205 172.899078,16.528494 
z"/>
<path fill="#1873B9" opacity="1.000000" stroke="none" 
	d="
M77.450989,237.093201 
	C76.992638,221.660538 76.994011,206.313766 77.001694,190.500916 
	C92.781410,189.951721 108.556297,189.737000 124.326782,189.913986 
	C126.981384,189.943771 129.721024,191.450897 132.232849,192.665329 
	C134.872620,193.941635 134.690125,197.369904 131.951874,198.669907 
	C128.842239,200.146240 125.601883,201.347260 122.020317,202.833099 
	C124.826103,209.956375 127.474251,216.679428 130.295074,223.840897 
	C114.114647,233.916504 96.408989,237.052307 77.450989,237.093201 
z"/>
<path fill="#FCFDFD" opacity="1.000000" stroke="none" 
	d="
M168.076141,172.766968 
	C181.144089,168.829605 192.357880,173.357651 197.898071,184.505325 
	C202.972168,194.715149 199.894852,206.997757 190.536514,213.887924 
	C180.472382,221.297745 166.082428,219.376862 158.293747,209.583878 
	C150.237930,199.455063 151.563553,185.033783 161.419632,176.896774 
	C163.317337,175.330017 165.605347,174.236008 168.076141,172.766968 
z"/>
</svg>